<?xml version="1.0" encoding="UTF-8"?>
<!DOCTYPE svg PUBLIC "-//W3C//DTD SVG 1.1//EN" "http://www.w3.org/Graphics/SVG/1.1/DTD/svg11.dtd">
<!-- Creator: CorelDRAW 2020 (64 Bit) -->
<svg xmlns="http://www.w3.org/2000/svg" xml:space="preserve" width="1180px" height="330px" version="1.1" style="shape-rendering:geometricPrecision; text-rendering:geometricPrecision; image-rendering:optimizeQuality; fill-rule:evenodd; clip-rule:evenodd"
viewBox="0 0 1180000 330394"
 xmlns:xlink="http://www.w3.org/1999/xlink"
 xmlns:xodm="http://www.corel.com/coreldraw/odm/2003">
 <defs>
  <style type="text/css">
   <![CDATA[
    .fil0 {fill:white;fill-rule:nonzero}
   ]]>
  </style>
 </defs>
 <g id="Camada_x0020_1">
  <metadata id="CorelCorpID_0Corel-Layer"/>
  <path class="fil0" d="M574497 135258c11442,2049 29108,6127 38176,22257 725,1291 1283,2537 1706,3693l-23910 6420c-180,-1392 -1125,-6263 -5854,-10025 -5050,-3707 -13438,-7369 -28880,-7393 -15158,-33 -24117,3519 -28906,7099 -5655,4232 -7036,13665 6826,14960 18170,1701 38740,1409 56616,4065 13216,1961 25192,8335 28194,21395 1989,8636 -2040,18312 -10777,24985 -18129,13845 -77666,14676 -98909,-1501 -5807,-4427 -9008,-10152 -10752,-14730l23750 -6372c343,2510 2078,7776 10385,11146 11753,4770 33613,5339 50144,1804 12317,-2633 14244,-8665 11565,-13488 -3127,-5631 -17932,-6073 -36494,-7331 -17275,-1170 -40231,-498 -52129,-10698 -7731,-6617 -11556,-17963 -2692,-29904 16445,-22145 65114,-17599 71941,-16382z"/>
  <path class="fil0" d="M799379 135258c11443,2049 29108,6127 38176,22257 726,1291 1283,2537 1707,3693l-23913 6420c-177,-1392 -1123,-6263 -5852,-10025 -5049,-3707 -13438,-7369 -28880,-7393 -15159,-33 -24116,3519 -28906,7099 -5654,4232 -7038,13665 6826,14960 18170,1701 38740,1409 56616,4065 13215,1961 25192,8335 28192,21395 1991,8636 -2037,18312 -10774,24985 -18129,13845 -77668,14676 -98909,-1501 -5808,-4427 -9009,-10152 -10753,-14730l23751 -6372c342,2510 2078,7776 10384,11146 11753,4770 33611,5339 50145,1804 12317,-2633 14243,-8665 11564,-13488 -3126,-5631 -17931,-6073 -36493,-7331 -17275,-1170 -40231,-498 -52129,-10698 -7732,-6617 -11556,-17963 -2692,-29904 16445,-22145 65113,-17599 71940,-16382z"/>
  <path class="fil0" d="M668397 127504c7543,0 13657,-6113 13657,-13656 0,-7542 -6114,-13656 -13657,-13656 -7541,0 -13656,6114 -13656,13656 0,7543 6115,13656 13656,13656z"/>
  <polygon class="fil0" points="656470,235111 680816,235111 680816,138482 656470,138482 "/>
  <path class="fil0" d="M930353 235104l0 -421c24,-7552 31,-69967 31,-76085l27339 127 0 -19530 -27339 -127c0,-22510 283,-30125 283,-39479l-24629 0 -340 39479 -25033 0 0 19530 25033 0 0 76506 24655 0z"/>
  <path class="fil0" d="M1114347 163974c6669,12272 6416,22527 5974,27903 -36558,0 -72755,-118 -109311,-118 0,0 1738,8815 11004,15260 9968,6925 26586,10319 45650,7765 16361,-2188 22453,-9603 23611,-12647l51 -158 23511 6310c-2538,4059 -7095,9549 -15109,15018 -15881,10839 -45200,14383 -73718,6974 -29333,-7615 -39838,-27516 -41700,-40949 -1369,-9797 1294,-17608 2346,-20384 4651,-12233 25166,-34504 63611,-34900 28833,-301 53725,10895 64080,29926zm-86096 -7194c-16000,8462 -17550,19113 -17611,19593l-3 16 82034 -25 -38 -124c-177,-573 -1029,-3086 -3200,-6691 -12963,-21546 -46021,-20787 -61182,-12769z"/>
  <polygon class="fil0" points="1156032,235111 1179919,235111 1179919,99589 1156032,99589 "/>
  <path class="fil0" d="M186725 331220c-103170,0 -186805,-29771 -186805,-72161 0,-42390 83635,-72160 186805,-72160 103170,0 186806,29770 186806,72160 0,42390 -83636,72161 -186806,72161zm-1147 -25266c84795,0 153535,-20566 153535,-45937 0,-25370 -68740,-45937 -153535,-45937 -84793,0 -153532,20567 -153532,45937 0,25371 68739,45937 153532,45937z"/>
  <path class="fil0" d="M152060 227509c-100975,-58297 -168144,-130996 -147229,-167220 20915,-36224 117457,-14404 218431,43894 100975,58297 168141,130996 147229,167220 -20915,36224 -117458,14404 -218431,-43894zm12060 -24022c82863,47842 160066,69259 172434,47837 12368,-21422 -44781,-77572 -127647,-125414 -82863,-47842 -160066,-69259 -172434,-47837 -12368,21422 44781,77571 127647,125414z"/>
  <path class="fil0" d="M188595 825c103169,0 186806,29770 186806,72159 0,42391 -83637,72161 -186806,72161 -103171,0 -186807,-29770 -186807,-72161 0,-42389 83636,-72159 186807,-72159zm1147 25265c-84795,0 -153533,20566 -153533,45937 0,25370 68738,45937 153533,45937 84794,0 153532,-20567 153532,-45937 0,-25371 -68738,-45937 -153532,-45937z"/>
 </g>
</svg>
