<?xml version="1.0" encoding="UTF-8"?>
<!DOCTYPE svg PUBLIC "-//W3C//DTD SVG 1.1//EN" "http://www.w3.org/Graphics/SVG/1.1/DTD/svg11.dtd">
<!-- Creator: CorelDRAW 2020 (64 Bit) -->
<svg xmlns="http://www.w3.org/2000/svg" xml:space="preserve" width="600px" height="600px" version="1.1" style="shape-rendering:geometricPrecision; text-rendering:geometricPrecision; image-rendering:optimizeQuality; fill-rule:evenodd; clip-rule:evenodd"
viewBox="0 0 600000 600000"
 xmlns:xlink="http://www.w3.org/1999/xlink"
 xmlns:xodm="http://www.corel.com/coreldraw/odm/2003">
 <defs>
  <style type="text/css">
   <![CDATA[
    .fil0 {fill:#347BFF}
   ]]>
  </style>
 </defs>
 <g id="Camada_x0020_1">
  <metadata id="CorelCorpID_0Corel-Layer"/>
  <g id="_2190880584288">
   <path class="fil0" d="M100000 430000l0 -6000c0,-27590 35770,-43116 57776,-22776 13647,12614 14006,35554 504,49056 -21377,21377 -58280,4979 -58280,-20280zm323000 -2000c0,-36765 39293,-44952 57780,-26780 21681,21315 6812,58780 -20780,58780 -11654,0 -18308,-586 -27780,-10221 -4878,-4962 -9220,-12299 -9220,-21779zm-215000 -2000c0,-17686 15358,-34000 33000,-34000 10806,0 19176,2493 26549,10451 22583,24376 739,57549 -20549,57549 -10513,0 -21725,-529 -30190,-10810 -4129,-5016 -8810,-14429 -8810,-23190zm116000 -113000c0,-8005 7593,-13000 17000,-13000l55000 0 0 103000 -72000 0 0 -90000zm88000 89000l0 -37000 72000 0c22711,0 6809,26000 23000,26000l33000 0c0,7741 504,5542 -1000,12000l-37000 0c-3014,-12936 -34520,-41375 -71972,-19973 -6160,3521 -12143,9979 -15983,16018l-2045 2955zm-323000 1000l-28000 0c-2146,-9213 -1000,-27646 -1000,-38000l247000 0 0 38000c-24463,0 -16146,2309 -25407,-9593 -19245,-24736 -59685,-22976 -76749,-1563l-7844 11156 -18000 0c-1692,-6335 -11507,-15694 -16781,-19219 -25566,-17084 -58642,-8330 -73219,19219zm439000 -68000l12000 0 0 19000 -12000 0 0 -19000zm-176000 -85000l16000 0 0 34000 -16000 0 0 -34000zm116000 20000l0 -37000 47000 0 20000 46000 -63000 0c-1560,-2330 -4000,-5220 -4000,-9000zm-108000 -69000c14773,0 20851,17777 11760,27760 -8747,9605 -27338,5551 -28509,-10959 -645,-9093 7500,-16801 16749,-16801zm91000 24000l0 43000c0,13856 10957,28000 21000,28000l68000 0 0 22000c-31483,0 -28000,-150 -28000,41000 0,13497 19963,11000 28000,11000l0 4000 -26000 0c0,-14891 -15493,-26000 -34000,-26000l-68000 0 0 -140000 92000 0c401,4821 1977,4610 3000,9000 -10667,0 -21334,0 -32000,0 -10798,0 -24000,-2714 -24000,8000zm-284000 -65000l162000 43000c-136,6125 -2000,4557 -2000,16000l-144394 -38606c-6625,-1639 -15458,-4882 -21606,-5394 3669,-5478 4290,-7658 6000,-15000zm-32000 12000c-24262,0 -19769,-32000 -4000,-32000l6000 0c16927,0 19194,32000 -2000,32000zm-34000 -16000c0,15369 13120,30845 27000,32000 0,16667 1,33333 0,50000 0,8420 -1644,17958 3819,21181 8778,5179 15181,-2453 15181,15819 0,7287 -18056,13860 -21605,-395 -1833,-7365 -1178,-10605 -9395,-10605 -5385,0 -8277,4440 -7812,9717 639,7239 4036,13525 8895,18200 17175,16525 46917,6340 46917,-21917 0,-10135 -10055,-23256 -19000,-24000l0 -58000c4115,92 8696,1939 12199,2801 4506,1110 7724,2129 11794,3206 8078,2139 15437,3946 23653,6347l131750 35251c14289,3491 10604,-2615 10604,48395 -14410,321 -28000,14468 -28000,33000l0 31000 -252000 0c-4812,0 -11000,2743 -11000,7000l0 48000c0,6839 8289,17000 19000,17000l20000 0 0 5000c0,28985 21570,52000 53000,52000 26036,0 49000,-23757 49000,-50000l0 -7000 7000 0 0 9000c0,39921 54248,67653 88767,30767 8085,-8638 12527,-21948 12820,-33894 61,-2515 -505,-2171 -587,-5873l113000 0c0,18667 3214,29798 14745,41255 35599,35371 87255,5989 87255,-33255l0 -8000c16336,0 33433,2676 41804,-5196 2404,-2260 6196,-7571 6196,-11804l0 -116000c0,-2909 -8506,-20859 -10335,-24665 -4101,-8540 -6974,-16380 -11001,-24999l-16370 -36630c-1380,-3292 -4457,-9706 -8294,-9706l-106000 0c-4837,0 -8000,3163 -8000,8000l0 85000 -12000 0 0 -43000c0,-2242 9000,-11251 9000,-23000 0,-22832 -22372,-38666 -43173,-32172 -12467,3891 -1919,6585 -43181,-5474 -12135,-3547 -23942,-6680 -36235,-9765 -30912,-7759 -68564,-19303 -98617,-26383 -14865,-3502 -5401,-6066 -19353,-15647 -21320,-14640 -51441,1017 -51441,27441z"/>
   <path class="fil0" d="M126000 427000c0,-8387 3700,-9000 10000,-9000 5164,0 9110,8957 4141,14141 -4479,4672 -14141,2653 -14141,-5141zm-17000 -2000c0,35219 50000,33849 50000,1000 0,-23185 -27796,-32774 -42785,-17785 -3293,3293 -7215,10540 -7215,16785z"/>
   <path class="fil0" d="M234000 426000c0,-10806 17000,-10806 17000,0 0,11460 -17000,11460 -17000,0zm8000 25000c7787,0 13981,-2076 19168,-7832 6825,-7575 8311,-16881 4458,-26794 -9042,-23261 -46853,-19363 -48109,8878 -598,13439 10318,25748 24483,25748z"/>
   <path class="fil0" d="M449000 428000c0,-8162 1838,-10000 10000,-10000 2898,0 5492,3100 6266,5797 1653,5762 -3601,12607 -10441,10497 -2714,-838 -5825,-3353 -5825,-6294zm-17000 -3000c0,16066 10667,26000 27000,26000 12403,0 23000,-10850 23000,-27000 0,-11802 -11307,-23000 -26000,-23000 -12231,0 -24000,11769 -24000,24000z"/>
   <path class="fil0" d="M424000 315000c0,10655 14706,8000 25000,8000 11344,0 9467,-16000 2000,-16000 -12227,0 -27000,-2723 -27000,8000z"/>
  </g>
 </g>
</svg>
