<?xml version="1.0" encoding="UTF-8"?>
<!DOCTYPE svg PUBLIC "-//W3C//DTD SVG 1.1//EN" "http://www.w3.org/Graphics/SVG/1.1/DTD/svg11.dtd">
<!-- Creator: CorelDRAW 2020 (64 Bit) -->
<?xml-stylesheet href="seta.css" type="text/css"?>
<svg xmlns="http://www.w3.org/2000/svg" xml:space="preserve" width="24px" height="24px" version="1.1" style="shape-rendering:geometricPrecision; text-rendering:geometricPrecision; image-rendering:optimizeQuality; fill-rule:evenodd; clip-rule:evenodd"
viewBox="0 0 24 24"
 xmlns:xlink="http://www.w3.org/1999/xlink"
 xmlns:xodm="http://www.corel.com/coreldraw/odm/2003">
 <g id="Camada_x0020_1">
  <metadata id="CorelCorpID_0Corel-Layer"/>
  <path class="fil0" d="M11.031 0.438l-6.286 6.533c-0.548,0.569 -0.531,1.474 0.039,2.022 0.569,0.548 1.475,0.531 2.022,-0.039l3.805 -3.953 -0.103 17.56c0,0.003 0,0.006 0,0.009 0,0.786 0.635,1.426 1.422,1.431 0.791,0.004 1.435,-0.632 1.439,-1.423l0.103 -17.568 3.712 3.934c0.542,0.575 1.448,0.602 2.022,0.059 0.299,-0.281 0.449,-0.66 0.449,-1.041 0,-0.352 -0.129,-0.705 -0.39,-0.981l-6.162 -6.533c-0.269,-0.284 -0.643,-0.447 -1.034,-0.449 -0.391,-0.001 -0.766,0.157 -1.038,0.439z"/>
 </g>
</svg>
