<?xml version="1.0" encoding="UTF-8"?>
<!DOCTYPE svg PUBLIC "-//W3C//DTD SVG 1.1//EN" "http://www.w3.org/Graphics/SVG/1.1/DTD/svg11.dtd">
<!-- Creator: CorelDRAW 2020 (64 Bit) -->
<svg xmlns="http://www.w3.org/2000/svg" xml:space="preserve" width="1180px" height="330px" version="1.1" style="shape-rendering:geometricPrecision; text-rendering:geometricPrecision; image-rendering:optimizeQuality; fill-rule:evenodd; clip-rule:evenodd"
viewBox="0 0 1180000 330394"
 xmlns:xlink="http://www.w3.org/1999/xlink"
 xmlns:xodm="http://www.corel.com/coreldraw/odm/2003">
 <defs>
  <style type="text/css">
   <![CDATA[
    .fil0 {fill:black;fill-rule:nonzero}
    .fil2 {fill:#093686;fill-rule:nonzero}
    .fil1 {fill:#347BFF;fill-rule:nonzero}
   ]]>
  </style>
 </defs>
 <g id="Camada_x0020_1">
  <metadata id="CorelCorpID_0Corel-Layer"/>
  <g id="_2190773403008">
   <path class="fil0" d="M573655 134464c11444,2049 29108,6127 38177,22258 727,1291 1282,2536 1706,3693l-23912 6414c-179,-1400 -1129,-6263 -5853,-10020 -5047,-3707 -13437,-7369 -28879,-7392 -15159,-33 -24117,3518 -28905,7099 -5656,4231 -7038,13664 6824,14960 18170,1700 38742,1408 56618,4064 655,97 1306,205 1955,325l0 2c12427,2284 23384,8656 26238,21068 1989,8635 -2039,18312 -10777,24985 -18128,13845 -77667,14676 -98908,-1501 -5809,-4426 -9010,-10152 -10754,-14730l23752 -6370c341,2510 2078,7776 10383,11144 11754,4770 33613,5339 50147,1804 12315,-2632 14243,-8665 11565,-13488 -3128,-5630 -17932,-6073 -36495,-7331 -17276,-1170 -40232,-497 -52129,-10699 -7734,-6616 -11556,-17962 -2693,-29903 16446,-22144 65115,-17599 71940,-16382z"/>
   <path class="fil0" d="M798538 134464c11444,2049 29108,6127 38177,22258 726,1291 1282,2536 1707,3693l-23913 6414c-180,-1400 -1129,-6263 -5853,-10020 -5048,-3707 -13436,-7369 -28880,-7392 -15158,-33 -24115,3518 -28905,7099 -5655,4231 -7037,13664 6825,14960 18170,1700 38741,1408 56617,4064 655,97 1308,205 1955,325l0 2c12428,2284 23385,8656 26238,21068 1991,8635 -2038,18312 -10776,24985 -18129,13845 -77667,14676 -98908,-1501 -5809,-4426 -9010,-10152 -10754,-14730l23752 -6370c342,2510 2078,7776 10384,11144 11754,4770 33612,5339 50145,1804 12316,-2632 14244,-8665 11565,-13488 -3127,-5630 -17932,-6073 -36495,-7331 -17274,-1170 -40230,-497 -52129,-10699 -7732,-6616 -11555,-17962 -2692,-29903 16446,-22144 65115,-17599 71940,-16382z"/>
   <path class="fil0" d="M667557 126711c7542,0 13657,-6115 13657,-13656 0,-7543 -6115,-13657 -13657,-13657 -7542,0 -13657,6114 -13657,13657 0,7541 6115,13656 13657,13656z"/>
   <polygon class="fil0" points="655629,234316 679975,234316 679975,137688 655629,137688 "/>
   <path class="fil0" d="M929512 234310l2 -421c22,-7551 30,-69967 30,-76085l27340 126 0 -19530 -27340 -126c0,-22510 284,-30125 284,-39479l-24630 0 -340 39479 -25033 0 0 19530 25033 0 0 76506 24654 0z"/>
   <path class="fil0" d="M1113508 163180c6668,12272 6415,22527 5975,27902 -36560,0 -72755,-117 -109313,-117 0,0 1738,8815 11003,15260 9970,6926 26589,10320 45651,7766 16605,-2221 22633,-9827 23661,-12782l8 -22 23508 6305c-2538,4060 -7095,9551 -15112,15021 -15880,10840 -45201,14383 -73718,6974 -29332,-7615 -39838,-27516 -41701,-40949 -1369,-9796 1294,-17608 2346,-20384 4652,-12232 25167,-34504 63613,-34900 28833,-301 53723,10895 64079,29926zm-86095 -7194c-16184,8557 -17584,19355 -17615,19605l0 5 82035 -26c0,0 -759,-2695 -3238,-6814 -12963,-21546 -46024,-20787 -61182,-12770z"/>
   <polygon class="fil0" points="1155192,234316 1179080,234316 1179080,98794 1155192,98794 "/>
   <path class="fil1" d="M185884 330426c-103170,0 -186807,-29770 -186807,-72160 0,-42391 83637,-72161 186807,-72161 103170,0 186807,29770 186807,72161 0,42390 -83637,72160 -186807,72160zm-1147 -25265c84793,0 153533,-20567 153533,-45938 0,-25370 -68740,-45937 -153533,-45937 -84794,0 -153533,20567 -153533,45937 0,25371 68739,45938 153533,45938z"/>
   <path class="fil2" d="M151216 226716c-100974,-58298 -168142,-130998 -147229,-167221 20914,-36224 117458,-14404 218432,43894 100975,58298 168143,130997 147229,167220 -20913,36224 -117457,14404 -218432,-43893zm12061 -24024c82864,47843 160066,69261 172434,47838 12368,-21422 -44781,-77572 -127646,-125414 -82865,-47842 -160067,-69260 -172435,-47837 -12367,21421 44782,77572 127647,125413z"/>
   <path class="fil1" d="M187752 30c103171,0 186807,29770 186807,72160 0,42391 -83636,72161 -186807,72161 -103171,0 -186806,-29770 -186806,-72161 0,-42390 83635,-72160 186806,-72160zm1147 25265c-84794,0 -153533,20567 -153533,45938 0,25370 68739,45936 153533,45936 84794,0 153534,-20566 153534,-45936 0,-25371 -68740,-45938 -153534,-45938z"/>
  </g>
 </g>
</svg>
