<?xml version="1.0" encoding="UTF-8"?>
<!DOCTYPE svg PUBLIC "-//W3C//DTD SVG 1.1//EN" "http://www.w3.org/Graphics/SVG/1.1/DTD/svg11.dtd">
<!-- Creator: CorelDRAW 2020 (64 Bit) -->
<svg xmlns="http://www.w3.org/2000/svg" xml:space="preserve" width="600px" height="600px" version="1.1" style="shape-rendering:geometricPrecision; text-rendering:geometricPrecision; image-rendering:optimizeQuality; fill-rule:evenodd; clip-rule:evenodd"
viewBox="0 0 600000 600000"
 xmlns:xlink="http://www.w3.org/1999/xlink"
 xmlns:xodm="http://www.corel.com/coreldraw/odm/2003">
 <defs>
  <style type="text/css">
   <![CDATA[
    .fil0 {fill:#347BFF}
   ]]>
  </style>
 </defs>
 <g id="Camada_x0020_1">
  <metadata id="CorelCorpID_0Corel-Layer"/>
  <g id="_2190778063552">
   <path class="fil0" d="M358000 513000l145000 0 0 10000 -145000 0 0 -10000zm-279000 -72000l145000 0 0 82000 -145000 0 0 -82000zm159000 60000l10000 0 0 10000 -10000 0 0 -10000zm150000 -12000l85000 0 0 10000 -85000 0 0 -10000zm32000 -125000l21000 0 0 111000 -21000 0 0 -111000zm-229000 53000l9000 0 0 10000 -9000 0 0 -10000zm-88000 0l9000 0 0 10000 -9000 0 0 -10000zm344000 -123000l0 55000 -33000 0c4981,-9414 10732,-18324 16316,-27684 2953,-4951 5259,-8774 8251,-13749 1664,-2766 2504,-4164 4115,-6885l4318 -6682zm-140000 69000l-62000 0c790,-3391 15298,-26965 18000,-31000l62000 0c-879,3292 -6541,11723 -8684,15316 -3245,5441 -6495,10351 -9316,15684zm82000 0l-65000 0c3154,-5961 16999,-27252 18000,-31000l65000 0c-3154,5961 -16999,27252 -18000,31000zm-161000 0l-63000 0c5675,-10725 12325,-20275 18000,-31000l63000 0c-3159,4718 -6070,9955 -9056,14944 -2093,3498 -8068,12294 -8944,16056zm188000 -46000l-64000 0c983,-3683 15001,-25332 18000,-31000l64000 0c-995,3727 -6414,11223 -8657,15343 -2983,5478 -6110,10829 -9343,15657zm-161000 0l-62000 0c826,-3546 6247,-11935 8433,-15567 2277,-3784 7704,-11730 8567,-15433l63000 0c-983,3683 -15001,25332 -18000,31000zm80000 0l-63000 0 18000 -31000 63000 0c-2676,5057 -6046,10213 -8944,15056 -2048,3422 -8178,12657 -9056,15944zm27000 -46000l-62000 0c790,-3391 15298,-26965 18000,-31000l62000 0 -18000 31000zm82000 0l-65000 0 18000 -31000 65000 0c-3154,5961 -16999,27252 -18000,31000zm-161000 0l-63000 0c5675,-10725 12325,-20275 18000,-31000l63000 0 -18000 31000zm188000 -46000l-64000 0c983,-3683 15001,-25332 18000,-31000l64000 0c-790,3391 -15298,26965 -18000,31000zm-161000 0l-62000 0c790,-3391 15298,-26965 18000,-31000l62000 0c-983,3683 -15001,25332 -18000,31000zm80000 0l-63000 0c3154,-5960 16999,-27252 18000,-31000l63000 0c-3154,5961 -16999,27252 -18000,31000zm27000 -46000l-62000 0c983,-3682 15001,-25331 18000,-31000l62000 0c-863,3706 -6289,11645 -8567,15433 -3298,5483 -6109,10602 -9433,15567zm82000 0l-65000 0c2785,-4158 17223,-27665 18000,-31000l65000 0c-5675,10725 -12325,20275 -18000,31000zm-161000 0l-63000 0c2675,-5057 6046,-10213 8945,-15055 2048,-3423 8177,-12657 9055,-15945l63000 0c-3154,5961 -16999,27252 -18000,31000zm-194000 192000c0,3917 3720,7000 8000,7000l240000 0c8431,0 7892,-9258 13000,-13000l0 85000 -104000 0c-3655,0 -8000,2760 -8000,6000l0 43000 -31000 0c0,-13568 913,-12000 -24000,-12000l0 -53000c0,-9339 -9494,-7000 -23000,-7000 0,-28029 2987,-24000 -33000,-24000 -8299,0 -6000,15509 -6000,24000l-49000 0c0,-28116 3613,-24000 -31000,-24000 -10087,0 -8000,12929 -8000,24000 -13506,0 -23000,-2339 -23000,7000l0 96000c0,4668 2332,7000 7000,7000l159000 0c7975,0 7000,-6251 7000,-12000 22320,0 24000,2136 24000,-11000l37000 0c3655,0 8000,-2760 8000,-6000l0 -43000 98000 0 0 10000c-35017,0 -32000,-4423 -32000,24000 -34667,0 -29000,-4420 -29000,31000 0,4668 2332,7000 7000,7000l159000 0c10055,0 7000,-12487 7000,-31000 0,-9884 -11672,-7000 -29000,-7000 0,-28689 2406,-24000 -32000,-24000l0 -109000c0,-5227 6046,-123 6057,-12943l-72 -76071c-79,-9664 384,-9185 3956,-15045 5007,-8213 9526,-15894 14626,-24374 4999,-8312 9308,-15579 14244,-23756 3739,-6193 42189,-68817 42189,-72811 0,-6793 -5265,-8000 -12000,-8000l-232000 0c-10818,0 -13633,10144 -22684,25316 -11136,18669 -126316,208803 -126316,212684z"/>
   <path class="fil0" d="M95000 136000c0,-4932 2065,-12460 3689,-16311 16924,-40163 78311,-27469 78311,16311 0,26890 -27993,49666 -57311,37311 -4889,-2059 -8990,-5130 -12467,-8532 -7187,-7030 -12222,-18472 -12222,-28779zm34000 -55000c-16749,3902 -12991,3588 -27000,11000 -13946,-20826 -30788,-3920 -10000,10000 -2240,4234 -4417,7498 -6680,12321 -2405,5128 -2987,8957 -4320,14679 -8732,0 -18000,-2098 -18000,7000 0,9098 9268,7000 18000,7000 3902,16749 3588,12991 11000,27000 -20826,13946 -3920,30788 10000,10000 14009,7413 10251,7098 27000,11000 0,8732 -2098,18000 7000,18000 9098,0 7000,-9268 7000,-18000 16749,-3902 12991,-3587 27000,-11000 13924,20793 30793,3924 10000,-10000 7413,-14009 7098,-10251 11000,-27000 8732,0 18000,2098 18000,-7000 0,-9098 -9268,-7000 -18000,-7000 -3902,-16749 -3587,-12991 -11000,-27000 20793,-13923 3924,-30793 -10000,-10000 -14009,-7412 -10251,-7098 -27000,-11000 0,-8732 2098,-18000 -7000,-18000 -9098,0 -7000,9268 -7000,18000z"/>
   <path class="fil0" d="M136000 482000c0,7808 6249,7000 14000,7000 -2789,5812 -11598,25000 2000,25000 6301,0 7604,-8290 9378,-13622 6721,-20207 11289,-25378 -8378,-25378 3387,-7058 11270,-24401 -1110,-24745 -4770,-133 -6610,3496 -8210,7425 -1348,3309 -7680,21693 -7680,24320z"/>
   <path class="fil0" d="M89000 475000c0,19089 -3139,32000 7000,32000 10140,0 7000,-12911 7000,-32000 0,-9606 -14000,-9606 -14000,0z"/>
  </g>
 </g>
</svg>
